<?xml version="1.0" standalone="no"?>
<!DOCTYPE svg PUBLIC "-//W3C//DTD SVG 20010904//EN"
 "http://www.w3.org/TR/2001/REC-SVG-20010904/DTD/svg10.dtd">
<svg version="1.0" xmlns="http://www.w3.org/2000/svg"
 width="125.000000pt" height="125.000000pt" viewBox="0 0 125.000000 125.000000"
 preserveAspectRatio="xMidYMid meet">
<metadata>
Created by potrace 1.14, written by Peter Selinger 2001-2017
</metadata>
<g transform="translate(0.000000,125.000000) scale(0.100000,-0.100000)"
fill="#000000" stroke="none">
<path d="M179 1196 c-1 -1 -3 -30 -4 -66 l-2 -66 147 1 146 0 0 65 0 65 -143
1 c-79 0 -144 0 -144 0z"/>
<path d="M774 1130 l0 -65 146 0 146 -1 0 66 0 66 -146 0 -146 0 0 -66z"/>
<path d="M20 575 l0 -464 73 -3 c64 -3 72 -5 75 -24 3 -18 10 -21 47 -21 43 0
63 16 49 38 -3 6 134 8 348 7 350 -3 353 -3 356 -24 3 -18 10 -21 47 -21 43 0
63 16 49 38 -3 5 32 9 80 9 l86 0 0 465 0 465 -605 0 -605 0 0 -465z"/>
</g>
</svg>
